<mxfile host="app.diagrams.net" agent="Mozilla/5.0 (Windows NT 10.0; Win64; x64) AppleWebKit/537.36 (KHTML, like Gecko) Chrome/131.0.0.0 Safari/537.36" version="25.0.3">
  <diagram name="Página-1" id="BcrtO9cki5YRa_V8KFar">
    <mxGraphModel dx="1050" dy="522" grid="1" gridSize="10" guides="1" tooltips="1" connect="1" arrows="1" fold="1" page="1" pageScale="1" pageWidth="827" pageHeight="1169" math="0" shadow="0">
      <root>
        <mxCell id="0" />
        <mxCell id="1" parent="0" />
        <mxCell id="K_rCwbfdzwNDt4s5ID4d-12" style="edgeStyle=orthogonalEdgeStyle;rounded=0;orthogonalLoop=1;jettySize=auto;html=1;entryX=0;entryY=0.5;entryDx=0;entryDy=0;" edge="1" parent="1" source="JonUtI2A8_VO-_GTD89V-1" target="JonUtI2A8_VO-_GTD89V-2">
          <mxGeometry relative="1" as="geometry" />
        </mxCell>
        <mxCell id="JonUtI2A8_VO-_GTD89V-1" value="API PROPOSALS/&lt;div&gt;CONFIRMATIONS&lt;/div&gt;" style="rounded=1;whiteSpace=wrap;html=1;fillColor=#fff2cc;strokeColor=#d6b656;" parent="1" vertex="1">
          <mxGeometry x="354" y="35" width="120" height="60" as="geometry" />
        </mxCell>
        <mxCell id="K_rCwbfdzwNDt4s5ID4d-3" style="edgeStyle=orthogonalEdgeStyle;rounded=0;orthogonalLoop=1;jettySize=auto;html=1;entryX=0;entryY=0.5;entryDx=0;entryDy=0;" edge="1" parent="1" source="JonUtI2A8_VO-_GTD89V-2" target="K_rCwbfdzwNDt4s5ID4d-2">
          <mxGeometry relative="1" as="geometry" />
        </mxCell>
        <mxCell id="K_rCwbfdzwNDt4s5ID4d-4" value="Não" style="edgeLabel;html=1;align=center;verticalAlign=middle;resizable=0;points=[];" vertex="1" connectable="0" parent="K_rCwbfdzwNDt4s5ID4d-3">
          <mxGeometry x="-0.1156" y="-1" relative="1" as="geometry">
            <mxPoint as="offset" />
          </mxGeometry>
        </mxCell>
        <mxCell id="K_rCwbfdzwNDt4s5ID4d-7" style="edgeStyle=orthogonalEdgeStyle;rounded=0;orthogonalLoop=1;jettySize=auto;html=1;entryX=0.5;entryY=0;entryDx=0;entryDy=0;" edge="1" parent="1" source="JonUtI2A8_VO-_GTD89V-2" target="K_rCwbfdzwNDt4s5ID4d-6">
          <mxGeometry relative="1" as="geometry" />
        </mxCell>
        <mxCell id="K_rCwbfdzwNDt4s5ID4d-8" value="Sim" style="edgeLabel;html=1;align=center;verticalAlign=middle;resizable=0;points=[];" vertex="1" connectable="0" parent="K_rCwbfdzwNDt4s5ID4d-7">
          <mxGeometry x="-0.208" y="3" relative="1" as="geometry">
            <mxPoint as="offset" />
          </mxGeometry>
        </mxCell>
        <mxCell id="JonUtI2A8_VO-_GTD89V-2" value="HP possui dívida ativa na Claro?" style="rhombus;whiteSpace=wrap;html=1;fillColor=#fff2cc;strokeColor=#d6b656;" parent="1" vertex="1">
          <mxGeometry x="540" y="10" width="120" height="110" as="geometry" />
        </mxCell>
        <mxCell id="K_rCwbfdzwNDt4s5ID4d-2" value="AS-IS" style="ellipse;whiteSpace=wrap;html=1;aspect=fixed;" vertex="1" parent="1">
          <mxGeometry x="750" y="45" width="40" height="40" as="geometry" />
        </mxCell>
        <mxCell id="K_rCwbfdzwNDt4s5ID4d-10" style="edgeStyle=orthogonalEdgeStyle;rounded=0;orthogonalLoop=1;jettySize=auto;html=1;entryX=0.5;entryY=1;entryDx=0;entryDy=0;" edge="1" parent="1" source="K_rCwbfdzwNDt4s5ID4d-6" target="JonUtI2A8_VO-_GTD89V-1">
          <mxGeometry relative="1" as="geometry" />
        </mxCell>
        <mxCell id="K_rCwbfdzwNDt4s5ID4d-6" value="Não cria proposta e&amp;nbsp;&lt;div&gt;devolve mensagem&amp;nbsp;&lt;/div&gt;&lt;div&gt;de dívida para Solar&lt;/div&gt;" style="shape=step;perimeter=stepPerimeter;whiteSpace=wrap;html=1;fixedSize=1;fillColor=#fff2cc;strokeColor=#d6b656;" vertex="1" parent="1">
          <mxGeometry x="520" y="170" width="160" height="50" as="geometry" />
        </mxCell>
        <mxCell id="K_rCwbfdzwNDt4s5ID4d-11" style="edgeStyle=orthogonalEdgeStyle;rounded=0;orthogonalLoop=1;jettySize=auto;html=1;entryX=0;entryY=0.5;entryDx=0;entryDy=0;startArrow=classic;startFill=1;" edge="1" parent="1" source="K_rCwbfdzwNDt4s5ID4d-9" target="JonUtI2A8_VO-_GTD89V-1">
          <mxGeometry relative="1" as="geometry" />
        </mxCell>
        <mxCell id="K_rCwbfdzwNDt4s5ID4d-9" value="SOLAR" style="rounded=1;whiteSpace=wrap;html=1;" vertex="1" parent="1">
          <mxGeometry x="50" y="35" width="120" height="60" as="geometry" />
        </mxCell>
        <mxCell id="K_rCwbfdzwNDt4s5ID4d-15" style="edgeStyle=orthogonalEdgeStyle;rounded=0;orthogonalLoop=1;jettySize=auto;html=1;entryX=0.5;entryY=1;entryDx=0;entryDy=0;" edge="1" parent="1" source="K_rCwbfdzwNDt4s5ID4d-13" target="K_rCwbfdzwNDt4s5ID4d-9">
          <mxGeometry relative="1" as="geometry" />
        </mxCell>
        <mxCell id="K_rCwbfdzwNDt4s5ID4d-13" value="NOVA API CONSULTA DÍVIDA ATIVA POR HP" style="rounded=1;whiteSpace=wrap;html=1;fillColor=#fff2cc;strokeColor=#d6b656;" vertex="1" parent="1">
          <mxGeometry x="50" y="210" width="120" height="60" as="geometry" />
        </mxCell>
        <mxCell id="K_rCwbfdzwNDt4s5ID4d-18" style="edgeStyle=orthogonalEdgeStyle;rounded=0;orthogonalLoop=1;jettySize=auto;html=1;entryX=0.5;entryY=1;entryDx=0;entryDy=0;" edge="1" parent="1" source="K_rCwbfdzwNDt4s5ID4d-16" target="K_rCwbfdzwNDt4s5ID4d-13">
          <mxGeometry relative="1" as="geometry" />
        </mxCell>
        <mxCell id="K_rCwbfdzwNDt4s5ID4d-16" value="NETSMS" style="shape=cylinder3;whiteSpace=wrap;html=1;boundedLbl=1;backgroundOutline=1;size=15;" vertex="1" parent="1">
          <mxGeometry x="329" y="260" width="170" height="80" as="geometry" />
        </mxCell>
        <mxCell id="K_rCwbfdzwNDt4s5ID4d-17" style="edgeStyle=orthogonalEdgeStyle;rounded=0;orthogonalLoop=1;jettySize=auto;html=1;entryX=1;entryY=0.5;entryDx=0;entryDy=0;entryPerimeter=0;" edge="1" parent="1" source="K_rCwbfdzwNDt4s5ID4d-2" target="K_rCwbfdzwNDt4s5ID4d-16">
          <mxGeometry relative="1" as="geometry">
            <Array as="points">
              <mxPoint x="770" y="300" />
            </Array>
          </mxGeometry>
        </mxCell>
        <mxCell id="K_rCwbfdzwNDt4s5ID4d-19" value="Cria Proposta" style="edgeLabel;html=1;align=center;verticalAlign=middle;resizable=0;points=[];" vertex="1" connectable="0" parent="K_rCwbfdzwNDt4s5ID4d-17">
          <mxGeometry x="0.0132" y="-1" relative="1" as="geometry">
            <mxPoint x="31" y="-159" as="offset" />
          </mxGeometry>
        </mxCell>
      </root>
    </mxGraphModel>
  </diagram>
</mxfile>
